<?xml version="1.0" encoding="UTF-8"?>
<!DOCTYPE svg PUBLIC "-//W3C//DTD SVG 1.1//EN" "http://www.w3.org/Graphics/SVG/1.1/DTD/svg11.dtd">
<!-- Creator: CorelDRAW X5 -->
<svg xmlns="http://www.w3.org/2000/svg" xml:space="preserve" width="216.596mm" height="91.44mm" style="shape-rendering:geometricPrecision; text-rendering:geometricPrecision; image-rendering:optimizeQuality; fill-rule:evenodd; clip-rule:evenodd"
viewBox="0 0 21660 9144"
 xmlns:xlink="http://www.w3.org/1999/xlink">
 <defs>
  <style type="text/css">
   <![CDATA[
    .fil1 {fill:black}
    .fil0 {fill:#E41E26}
    .fil2 {fill:white}
    .fil3 {fill:black;fill-rule:nonzero}
   ]]>
  </style>
 </defs>
 <g id="Layer_x0020_1">
  <metadata id="CorelCorpID_0Corel-Layer"/>
  <path class="fil0" d="M7497 2389c-439,0 -833,284 -1110,613l0 -547 -1169 0 0 3790 1227 0 0 -1919c0,-658 303,-936 697,-936 355,0 575,241 575,812l0 2043 1227 0 0 -2094c0,-1228 -626,-1762 -1446,-1762zm8781 3356l0 704c0,0 12,731 -763,550l-1 0 -72 997c151,31 2035,387 2035,-1365l27 -885 0 -3290 -1227 0 0 3290zm-5953 -3728c452,0 749,-322 749,-760 0,-417 -297,-717 -749,-717 -452,0 -749,322 -749,739 0,417 297,739 749,739zm-613 4229l1227 0 0 -3790 -1227 0 0 3790zm4300 -3856c-439,0 -833,284 -1110,613l0 -547 -1169 0 0 3790 1227 0 0 -1919c0,-658 303,-936 697,-936 355,0 575,241 575,812l0 2043 1227 0 0 -2094c0,-1228 -626,-1762 -1446,-1762zm2880 -373c452,0 749,-322 749,-760 0,-417 -297,-717 -749,-717 -452,0 -749,322 -749,739 0,417 297,739 749,739zm3002 329c-549,0 -1302,282 -1669,631l628 676c239,-212 558,-362 894,-362 484,0 697,174 716,576l-1012 102c-1079,109 -1410,580 -1410,1311 0,517 528,1062 1367,1062 397,0 930,-153 1104,-534l0 440 1143 0 6 -2124c3,-1258 -630,-1779 -1766,-1779zm-155 3165c-291,0 -533,-163 -533,-397 0,-241 250,-444 643,-471l665 -45 -1 337c-144,479 -503,576 -775,576z"/>
  <path class="fil1" d="M6850 8413l-579 -820 556 -785 -462 0 -325 468 -317 -468 -487 0 556 797 -576 809 473 0 339 -492 328 492 492 0zm1096 -1629c-200,0 -362,69 -470,209l0 -185 -414 0 0 2184 434 0 0 -749c111,131 264,194 451,194 420,0 745,-322 745,-826 0,-504 -325,-826 -745,-826zm-75 1271c-217,0 -381,-167 -381,-445 0,-277 164,-445 381,-445 217,0 381,167 381,445 0,277 -164,445 -381,445zm1524 -1035l0 -212 -414 0 0 1605 434 0 0 -758c0,-307 159,-448 398,-448 33,0 61,3 97,6l0 -430c-231,0 -409,81 -515,236zm2225 597c0,-516 -339,-832 -779,-832 -456,0 -798,346 -798,826 0,477 337,826 854,826 270,0 478,-90 617,-260l-231 -269c-103,104 -217,155 -375,155 -228,0 -387,-122 -428,-322l1132 0c3,-39 8,-90 8,-125zm-776 -480c195,0 337,131 367,334l-737 0c31,-206 172,-334 370,-334zm1569 1301c448,0 706,-212 706,-510 0,-633 -904,-367 -904,-641 0,-84 83,-149 278,-149 136,0 284,30 431,119l145 -331c-142,-90 -370,-140 -576,-140 -437,0 -693,215 -693,519 0,641 904,372 904,635 0,90 -75,146 -275,146 -184,0 -387,-63 -520,-155l-145 334c139,98 395,173 648,173zm1477 0c448,0 706,-212 706,-510 0,-633 -904,-367 -904,-641 0,-84 83,-149 278,-149 136,0 284,30 431,119l145 -331c-142,-90 -370,-140 -576,-140 -437,0 -693,215 -693,519 0,641 904,372 904,635 0,90 -75,146 -275,146 -184,0 -387,-63 -520,-155l-145 334c139,98 395,173 648,173z"/>
  <path class="fil0" d="M2162 0c1194,0 2161,968 2161,2161 0,28 -1,56 -2,84 0,4 0,9 0,13 -7,164 -33,324 -75,476 -116,474 -408,1233 -1138,2211 -412,553 -720,1351 -947,2180 -228,-829 -535,-1627 -947,-2180 -773,-1037 -1055,-1828 -1157,-2293 -14,-59 -25,-119 -34,-180 -29,-193 -22,-295 -22,-295l0 0c0,-5 0,-10 0,-15 0,-1194 968,-2161 2161,-2161zm0 397c974,0 1764,790 1764,1764 0,974 -790,1764 -1764,1764 -974,0 -1764,-790 -1764,-1764 0,-974 790,-1764 1764,-1764z"/>
  <path class="fil1" d="M2162 600c862,0 1561,699 1561,1561 0,862 -699,1561 -1561,1561 -862,0 -1561,-699 -1561,-1561 0,-862 699,-1561 1561,-1561z"/>
  <path class="fil2" d="M1376 1495l1572 0c296,0 539,242 539,539l0 0c0,296 -242,539 -539,539l-1572 0c-296,0 -539,-242 -539,-539l0 0c0,-296 242,-539 539,-539zm118 228c172,0 311,139 311,311 0,172 -139,311 -311,311 -172,0 -311,-139 -311,-311 0,-172 139,-311 311,-311zm1336 0c172,0 311,139 311,311 0,172 -139,311 -311,311 -172,0 -311,-139 -311,-311 0,-172 139,-311 311,-311zm11 36c74,0 135,60 135,135 0,74 -60,135 -135,135 -74,0 -135,-60 -135,-135 0,-74 60,-135 135,-135zm-1336 0c74,0 135,60 135,135 0,74 -60,135 -135,135 -74,0 -135,-60 -135,-135 0,-74 60,-135 135,-135z"/>
  <path class="fil3" d="M2717 6164l962 592 0 0 0 0 0 100 0 1314 0 79 -67 40 -1450 855 -1450 -855 -67 -40 0 -79 0 -1414 112 -69 849 -523c36,79 71,160 105,243l-684 421 707 435 429 253 431 -254 705 -434 -685 -422c34,-82 69,-163 105,-243zm-687 1589l-6 -3 -1116 -658 0 999 1121 661 0 -999z"/>
 </g>
</svg>
