<?xml version="1.0" encoding="UTF-8"?>
<!DOCTYPE svg PUBLIC "-//W3C//DTD SVG 1.1//EN" "http://www.w3.org/Graphics/SVG/1.1/DTD/svg11.dtd">
<!-- Creator: CorelDRAW X5 -->
<svg xmlns="http://www.w3.org/2000/svg" xml:space="preserve" width="307.78mm" height="91.44mm" style="shape-rendering:geometricPrecision; text-rendering:geometricPrecision; image-rendering:optimizeQuality; fill-rule:evenodd; clip-rule:evenodd"
viewBox="0 0 30778 9144"
 xmlns:xlink="http://www.w3.org/1999/xlink">
 <defs>
  <style type="text/css">
   <![CDATA[
    .fil0 {fill:#0061AE}
    .fil1 {fill:#E62129;fill-rule:nonzero}
   ]]>
  </style>
 </defs>
 <g id="__x0023_Layer_x0020_1">
  <metadata id="CorelCorpID_0Corel-Layer"/>
  <path class="fil0" d="M3634 6155c-710,3 -1419,5 -2129,8 -494,-789 -988,-1579 -1483,-2368 695,0 1390,0 2085,0 377,574 754,1147 1130,1721 -181,-402 -362,-804 -543,-1206 402,-630 805,-1259 1207,-1889 140,-219 325,-376 597,-376 581,0 1161,0 1742,0 -868,1370 -1737,2740 -2605,4110zm3010 0l0 0c-710,3 -1419,5 -2129,8 -139,-222 -278,-444 -417,-666l1195 -1555 954 1574c-181,-402 -362,-804 -543,-1206 402,-630 1135,-1789 1537,-2418 140,-219 325,-376 597,-376 581,0 1161,0 1742,0 -868,1370 -2067,3270 -2936,4640zm-4552 -2654l0 0c-697,0 -1395,0 -2092,0 425,-1235 1218,-2304 2701,-2952 2209,-964 4631,-601 6643,643 -1778,-561 -3467,-487 -4725,-45 -1110,390 -1963,1158 -2527,2354zm9954 2670l0 0 -1541 0 -41 -666 -1174 0 -442 666 -1566 0 2086 -3258c178,-276 369,-397 700,-397l1809 0 169 3655zm-1615 -1467l0 0 -653 0 536 -894 81 0 37 894zm10950 1467l0 0 -1541 0 -41 -666 -1174 0 -442 666 -1566 0 2086 -3258c178,-276 369,-397 700,-397l1809 0 169 3655zm-1615 -1467l0 0 -653 0 536 -894 81 0 37 894zm10950 1467l0 0 -1541 0 -41 -666 -1174 0 -442 666 -1566 0 2086 -3258c178,-276 369,-397 700,-397l1809 0 169 3655zm-1615 -1467l0 0 -653 0 536 -894 81 0 37 894zm-15708 -2181l0 0 1622 0 -349 1235 807 0 349 -1235 1622 0 -1031 3648 -1622 0 356 -1258 -807 0 -356 1258 -1622 0 1031 -3648zm9373 0l0 0 1593 0 -20 70 24 -78 361 1713 479 -1706 1593 0 -1024 3648 -1581 0 -4 15 -3 -15 -4 0 2 -9 -363 -1713 -483 1721 -1593 0 1024 -3648z"/>
  <path class="fil1" d="M20041 8589l1529 0 95 -444 -875 0 54 -251 820 0 95 -444 -820 0 56 -262 857 0 95 -444 -1512 0 -393 1844zm1903 -1377l0 0 262 637 -585 740 642 0 307 -444 110 444 667 0 -270 -750 496 -626 -617 0 -263 412 -87 -412 -662 0zm1380 1932l0 0 630 0 156 -732 5 0c33,74 77,127 135,160 57,33 128,49 213,49 98,0 186,-19 265,-57 78,-38 146,-89 205,-152 59,-63 107,-137 146,-222 39,-85 68,-174 88,-267 21,-100 31,-196 30,-285 -2,-90 -18,-169 -48,-236 -31,-68 -78,-122 -142,-161 -64,-40 -148,-59 -253,-59 -103,0 -193,21 -268,63 -76,42 -146,115 -212,219l-5 0 54 -251 -585 0 -412 1932zm876 -1237l0 0c7,-32 15,-64 26,-98 10,-33 24,-64 41,-91 17,-27 37,-50 62,-67 25,-18 54,-26 87,-26 35,0 61,9 78,26 17,18 28,41 33,69 5,28 6,60 2,95 -3,35 -9,71 -17,108 -8,37 -17,73 -28,107 -11,34 -25,65 -42,91 -17,26 -38,48 -61,63 -23,16 -52,24 -85,24 -35,0 -61,-8 -79,-24 -17,-16 -29,-38 -35,-66 -6,-28 -6,-60 -2,-96 4,-36 11,-74 20,-115zm1295 -695l0 0 -294 1377 630 0 107 -499c11,-51 30,-99 57,-143 27,-44 58,-83 95,-116 36,-33 76,-59 119,-78 43,-18 86,-28 130,-28 28,0 55,2 80,5 25,4 44,9 58,16l118 -552c-26,-9 -60,-13 -100,-13 -50,0 -97,9 -141,26 -44,18 -85,42 -124,73 -39,31 -76,67 -111,108 -35,41 -66,87 -95,136l-5 0 67 -312 -590 0zm1620 558l0 0c4,-26 11,-55 22,-87 11,-32 26,-61 44,-89 18,-27 41,-50 67,-69 26,-19 58,-28 95,-28 35,0 61,9 78,28 17,18 28,41 33,69 5,27 6,57 2,89 -3,32 -8,61 -14,87l-327 0zm810 291l0 0 17 -82c25,-116 36,-223 32,-321 -3,-98 -24,-182 -62,-252 -38,-70 -97,-126 -175,-165 -78,-40 -181,-59 -307,-59 -265,0 -478,58 -639,173 -161,115 -267,289 -316,522 -51,240 -22,424 87,552 109,129 296,193 561,193 110,0 215,-6 316,-19 101,-12 197,-33 288,-61l76 -357c-56,28 -123,50 -200,65 -77,15 -159,22 -246,22 -47,0 -90,-3 -129,-9 -39,-6 -73,-17 -102,-33 -28,-16 -49,-37 -62,-65 -13,-27 -16,-62 -9,-104l870 0zm20 481l0 0c85,25 171,44 259,58 88,14 178,21 269,21 75,0 156,-7 243,-22 87,-15 171,-41 251,-79 80,-38 150,-89 211,-153 61,-64 102,-146 123,-244 18,-86 15,-155 -10,-206 -25,-51 -61,-91 -109,-120 -48,-29 -102,-50 -163,-62 -61,-12 -117,-22 -170,-30 -52,-8 -96,-17 -129,-26 -34,-10 -48,-27 -43,-52 5,-21 14,-38 29,-50 15,-12 34,-22 56,-29 22,-7 47,-11 73,-13 26,-2 53,-3 79,-3 72,0 140,7 204,21 64,14 127,33 189,58l79 -370c-75,-18 -149,-32 -225,-42 -75,-11 -153,-16 -233,-16 -78,0 -162,6 -250,17 -88,11 -172,34 -251,67 -79,33 -148,81 -209,141 -60,61 -101,140 -122,239 -19,88 -16,159 8,213 24,54 60,96 108,126 48,30 102,52 162,66 60,14 116,26 169,36 52,10 95,21 128,34 33,13 47,34 41,62 -4,18 -14,32 -31,44 -17,11 -37,21 -61,28 -24,7 -50,12 -77,15 -27,3 -54,4 -81,4 -82,0 -162,-11 -240,-33 -79,-22 -144,-52 -195,-91l-84 394zm1390 0l0 0c85,25 171,44 259,58 88,14 178,21 269,21 75,0 156,-7 243,-22 87,-15 171,-41 251,-79 80,-38 150,-89 211,-153 61,-64 102,-146 123,-244 18,-86 15,-155 -10,-206 -25,-51 -61,-91 -109,-120 -48,-29 -102,-50 -163,-62 -61,-12 -117,-22 -170,-30 -52,-8 -96,-17 -129,-26 -34,-10 -48,-27 -43,-52 5,-21 14,-38 29,-50 15,-12 34,-22 56,-29 22,-7 47,-11 73,-13 26,-2 53,-3 79,-3 72,0 140,7 204,21 64,14 127,33 189,58l79 -370c-75,-18 -149,-32 -225,-42 -75,-11 -153,-16 -233,-16 -78,0 -162,6 -250,17 -88,11 -172,34 -251,67 -79,33 -148,81 -209,141 -60,61 -101,140 -122,239 -19,88 -16,159 8,213 24,54 60,96 108,126 48,30 102,52 162,66 60,14 116,26 169,36 52,10 95,21 128,34 33,13 47,34 40,62 -4,18 -14,32 -31,44 -17,11 -37,21 -61,28 -24,7 -50,12 -77,15 -27,3 -54,4 -81,4 -82,0 -162,-11 -240,-33 -79,-22 -144,-52 -195,-91l-84 394z"/>
 </g>
</svg>
